<mxfile host="app.diagrams.net" modified="2020-12-06T12:08:39.827Z" agent="5.0 (Windows NT 10.0; Win64; x64) AppleWebKit/537.36 (KHTML, like Gecko) Chrome/86.0.4240.198 Safari/537.36" etag="RwDe6oLS-kcyimngWqsC" version="13.1.2" type="github">
  <diagram id="dGT4Hh-CYGsmOcZZTxus" name="Page-1">
    <mxGraphModel dx="3197" dy="2344" grid="1" gridSize="10" guides="1" tooltips="1" connect="1" arrows="1" fold="1" page="1" pageScale="1" pageWidth="827" pageHeight="1169" math="0" shadow="0">
      <root>
        <mxCell id="0" />
        <mxCell id="1" parent="0" />
        <mxCell id="V3jVEzcbfm84GRrFoneU-36" value="" style="group;" vertex="1" connectable="0" parent="1">
          <mxGeometry x="-240" y="520" width="710" height="440" as="geometry" />
        </mxCell>
        <mxCell id="V3jVEzcbfm84GRrFoneU-37" value="" style="rounded=0;whiteSpace=wrap;html=1;strokeColor=#C3ABD0;strokeWidth=4;" vertex="1" parent="V3jVEzcbfm84GRrFoneU-36">
          <mxGeometry y="20.48582995951417" width="710" height="397.2469635627531" as="geometry" />
        </mxCell>
        <mxCell id="V3jVEzcbfm84GRrFoneU-55" value="[indoor]Library" style="swimlane;fontStyle=1;align=center;verticalAlign=top;childLayout=stackLayout;horizontal=1;startSize=26;horizontalStack=0;resizeParent=1;resizeParentMax=0;resizeLast=0;collapsible=1;marginBottom=0;strokeColor=#000000;strokeWidth=1;" vertex="1" parent="V3jVEzcbfm84GRrFoneU-36">
          <mxGeometry x="494" y="40" width="160" height="71.33333333333333" as="geometry" />
        </mxCell>
        <mxCell id="V3jVEzcbfm84GRrFoneU-57" value="" style="line;strokeWidth=1;fillColor=none;align=left;verticalAlign=middle;spacingTop=-1;spacingLeft=3;spacingRight=3;rotatable=0;labelPosition=right;points=[];portConstraint=eastwest;" vertex="1" parent="V3jVEzcbfm84GRrFoneU-55">
          <mxGeometry y="26" width="160" height="10.666666666666666" as="geometry" />
        </mxCell>
        <mxCell id="V3jVEzcbfm84GRrFoneU-58" value="+ method(type): type" style="text;strokeColor=none;fillColor=none;align=left;verticalAlign=top;spacingLeft=4;spacingRight=4;overflow=hidden;rotatable=0;points=[[0,0.5],[1,0.5]];portConstraint=eastwest;" vertex="1" parent="V3jVEzcbfm84GRrFoneU-55">
          <mxGeometry y="36.666666666666664" width="160" height="34.666666666666664" as="geometry" />
        </mxCell>
        <mxCell id="V3jVEzcbfm84GRrFoneU-43" value="Active" style="swimlane;fontStyle=1;align=center;verticalAlign=top;childLayout=stackLayout;horizontal=1;startSize=26;horizontalStack=0;resizeParent=1;resizeParentMax=0;resizeLast=0;collapsible=1;marginBottom=0;strokeColor=#000000;strokeWidth=1;" vertex="1" parent="V3jVEzcbfm84GRrFoneU-36">
          <mxGeometry x="15" y="40" width="160" height="106" as="geometry" />
        </mxCell>
        <mxCell id="V3jVEzcbfm84GRrFoneU-44" value="+ ActivePoint: int" style="text;strokeColor=none;fillColor=none;align=left;verticalAlign=top;spacingLeft=4;spacingRight=4;overflow=hidden;rotatable=0;points=[[0,0.5],[1,0.5]];portConstraint=eastwest;" vertex="1" parent="V3jVEzcbfm84GRrFoneU-43">
          <mxGeometry y="26" width="160" height="34.666666666666664" as="geometry" />
        </mxCell>
        <mxCell id="V3jVEzcbfm84GRrFoneU-45" value="" style="line;strokeWidth=1;fillColor=none;align=left;verticalAlign=middle;spacingTop=-1;spacingLeft=3;spacingRight=3;rotatable=0;labelPosition=right;points=[];portConstraint=eastwest;" vertex="1" parent="V3jVEzcbfm84GRrFoneU-43">
          <mxGeometry y="60.666666666666664" width="160" height="10.666666666666666" as="geometry" />
        </mxCell>
        <mxCell id="V3jVEzcbfm84GRrFoneU-46" value="+ method(type): type" style="text;strokeColor=none;fillColor=none;align=left;verticalAlign=top;spacingLeft=4;spacingRight=4;overflow=hidden;rotatable=0;points=[[0,0.5],[1,0.5]];portConstraint=eastwest;" vertex="1" parent="V3jVEzcbfm84GRrFoneU-43">
          <mxGeometry y="71.33333333333333" width="160" height="34.666666666666664" as="geometry" />
        </mxCell>
        <mxCell id="V3jVEzcbfm84GRrFoneU-38" value="After Event" style="text;html=1;strokeColor=none;fillColor=none;align=center;verticalAlign=middle;whiteSpace=wrap;rounded=0;" vertex="1" parent="V3jVEzcbfm84GRrFoneU-36">
          <mxGeometry x="10" width="100" height="17.813333333333333" as="geometry" />
        </mxCell>
        <mxCell id="V3jVEzcbfm84GRrFoneU-47" value="[outdoor]Casino" style="swimlane;fontStyle=1;align=center;verticalAlign=top;childLayout=stackLayout;horizontal=1;startSize=26;horizontalStack=0;resizeParent=1;resizeParentMax=0;resizeLast=0;collapsible=1;marginBottom=0;strokeColor=#000000;strokeWidth=1;" vertex="1" parent="V3jVEzcbfm84GRrFoneU-36">
          <mxGeometry x="20" y="290" width="160" height="71.33333333333333" as="geometry" />
        </mxCell>
        <mxCell id="V3jVEzcbfm84GRrFoneU-49" value="" style="line;strokeWidth=1;fillColor=none;align=left;verticalAlign=middle;spacingTop=-1;spacingLeft=3;spacingRight=3;rotatable=0;labelPosition=right;points=[];portConstraint=eastwest;" vertex="1" parent="V3jVEzcbfm84GRrFoneU-47">
          <mxGeometry y="26" width="160" height="10.666666666666666" as="geometry" />
        </mxCell>
        <mxCell id="V3jVEzcbfm84GRrFoneU-50" value="+ method(type): type" style="text;strokeColor=none;fillColor=none;align=left;verticalAlign=top;spacingLeft=4;spacingRight=4;overflow=hidden;rotatable=0;points=[[0,0.5],[1,0.5]];portConstraint=eastwest;" vertex="1" parent="V3jVEzcbfm84GRrFoneU-47">
          <mxGeometry y="36.666666666666664" width="160" height="34.666666666666664" as="geometry" />
        </mxCell>
        <mxCell id="V3jVEzcbfm84GRrFoneU-17" value="" style="group;" vertex="1" connectable="0" parent="1">
          <mxGeometry x="490" y="-340" width="710" height="494" as="geometry" />
        </mxCell>
        <mxCell id="V3jVEzcbfm84GRrFoneU-18" value="" style="rounded=0;whiteSpace=wrap;html=1;strokeColor=#F19C99;strokeWidth=4;" vertex="1" parent="V3jVEzcbfm84GRrFoneU-17">
          <mxGeometry y="23" width="710" height="446" as="geometry" />
        </mxCell>
        <mxCell id="V3jVEzcbfm84GRrFoneU-19" value="Maze" style="text;html=1;strokeColor=none;fillColor=none;align=center;verticalAlign=middle;whiteSpace=wrap;rounded=0;" vertex="1" parent="V3jVEzcbfm84GRrFoneU-17">
          <mxGeometry x="10" width="40" height="20" as="geometry" />
        </mxCell>
        <mxCell id="V3jVEzcbfm84GRrFoneU-28" value="[Combat] Scheduler" style="swimlane;fontStyle=1;align=center;verticalAlign=top;childLayout=stackLayout;horizontal=1;startSize=26;horizontalStack=0;resizeParent=1;resizeParentMax=0;resizeLast=0;collapsible=1;marginBottom=0;" vertex="1" parent="V3jVEzcbfm84GRrFoneU-17">
          <mxGeometry x="330" y="254" width="160" height="86" as="geometry" />
        </mxCell>
        <mxCell id="V3jVEzcbfm84GRrFoneU-29" value="+ field: type" style="text;strokeColor=none;fillColor=none;align=left;verticalAlign=top;spacingLeft=4;spacingRight=4;overflow=hidden;rotatable=0;points=[[0,0.5],[1,0.5]];portConstraint=eastwest;" vertex="1" parent="V3jVEzcbfm84GRrFoneU-28">
          <mxGeometry y="26" width="160" height="26" as="geometry" />
        </mxCell>
        <mxCell id="V3jVEzcbfm84GRrFoneU-30" value="" style="line;strokeWidth=1;fillColor=none;align=left;verticalAlign=middle;spacingTop=-1;spacingLeft=3;spacingRight=3;rotatable=0;labelPosition=right;points=[];portConstraint=eastwest;" vertex="1" parent="V3jVEzcbfm84GRrFoneU-28">
          <mxGeometry y="52" width="160" height="8" as="geometry" />
        </mxCell>
        <mxCell id="V3jVEzcbfm84GRrFoneU-31" value="+ method(type): coroutine" style="text;strokeColor=none;fillColor=none;align=left;verticalAlign=top;spacingLeft=4;spacingRight=4;overflow=hidden;rotatable=0;points=[[0,0.5],[1,0.5]];portConstraint=eastwest;" vertex="1" parent="V3jVEzcbfm84GRrFoneU-28">
          <mxGeometry y="60" width="160" height="26" as="geometry" />
        </mxCell>
        <mxCell id="g-DItmgqgjEYdO-mJaCF-5" value="Combat" style="swimlane;fontStyle=0;childLayout=stackLayout;horizontal=1;startSize=26;fillColor=none;horizontalStack=0;resizeParent=1;resizeParentMax=0;resizeLast=0;collapsible=1;marginBottom=0;" parent="V3jVEzcbfm84GRrFoneU-17" vertex="1">
          <mxGeometry x="330" y="350" width="140" height="104" as="geometry" />
        </mxCell>
        <mxCell id="g-DItmgqgjEYdO-mJaCF-6" value="+ field: type" style="text;strokeColor=none;fillColor=none;align=left;verticalAlign=top;spacingLeft=4;spacingRight=4;overflow=hidden;rotatable=0;points=[[0,0.5],[1,0.5]];portConstraint=eastwest;" parent="g-DItmgqgjEYdO-mJaCF-5" vertex="1">
          <mxGeometry y="26" width="140" height="26" as="geometry" />
        </mxCell>
        <mxCell id="g-DItmgqgjEYdO-mJaCF-7" value="+ field: type" style="text;strokeColor=none;fillColor=none;align=left;verticalAlign=top;spacingLeft=4;spacingRight=4;overflow=hidden;rotatable=0;points=[[0,0.5],[1,0.5]];portConstraint=eastwest;" parent="g-DItmgqgjEYdO-mJaCF-5" vertex="1">
          <mxGeometry y="52" width="140" height="26" as="geometry" />
        </mxCell>
        <mxCell id="g-DItmgqgjEYdO-mJaCF-8" value="+ field: type" style="text;strokeColor=none;fillColor=none;align=left;verticalAlign=top;spacingLeft=4;spacingRight=4;overflow=hidden;rotatable=0;points=[[0,0.5],[1,0.5]];portConstraint=eastwest;" parent="g-DItmgqgjEYdO-mJaCF-5" vertex="1">
          <mxGeometry y="78" width="140" height="26" as="geometry" />
        </mxCell>
        <mxCell id="V3jVEzcbfm84GRrFoneU-3" value="" style="group;" vertex="1" connectable="0" parent="1">
          <mxGeometry x="490" y="130" width="710" height="494" as="geometry" />
        </mxCell>
        <mxCell id="V3jVEzcbfm84GRrFoneU-1" value="" style="rounded=0;whiteSpace=wrap;html=1;strokeColor=#9AC7BF;strokeWidth=4;" vertex="1" parent="V3jVEzcbfm84GRrFoneU-3">
          <mxGeometry y="23" width="710" height="446" as="geometry" />
        </mxCell>
        <mxCell id="V3jVEzcbfm84GRrFoneU-2" value="Tycoon" style="text;html=1;strokeColor=none;fillColor=none;align=center;verticalAlign=middle;whiteSpace=wrap;rounded=0;" vertex="1" parent="V3jVEzcbfm84GRrFoneU-3">
          <mxGeometry x="10" width="40" height="20" as="geometry" />
        </mxCell>
        <mxCell id="V3jVEzcbfm84GRrFoneU-9" value="Scheduler" style="swimlane;fontStyle=1;align=center;verticalAlign=top;childLayout=stackLayout;horizontal=1;startSize=26;horizontalStack=0;resizeParent=1;resizeParentMax=0;resizeLast=0;collapsible=1;marginBottom=0;" vertex="1" parent="V3jVEzcbfm84GRrFoneU-3">
          <mxGeometry x="210" y="366" width="160" height="86" as="geometry" />
        </mxCell>
        <mxCell id="V3jVEzcbfm84GRrFoneU-10" value="+ field: type" style="text;strokeColor=none;fillColor=none;align=left;verticalAlign=top;spacingLeft=4;spacingRight=4;overflow=hidden;rotatable=0;points=[[0,0.5],[1,0.5]];portConstraint=eastwest;" vertex="1" parent="V3jVEzcbfm84GRrFoneU-9">
          <mxGeometry y="26" width="160" height="26" as="geometry" />
        </mxCell>
        <mxCell id="V3jVEzcbfm84GRrFoneU-11" value="" style="line;strokeWidth=1;fillColor=none;align=left;verticalAlign=middle;spacingTop=-1;spacingLeft=3;spacingRight=3;rotatable=0;labelPosition=right;points=[];portConstraint=eastwest;" vertex="1" parent="V3jVEzcbfm84GRrFoneU-9">
          <mxGeometry y="52" width="160" height="8" as="geometry" />
        </mxCell>
        <mxCell id="V3jVEzcbfm84GRrFoneU-12" value="+ method(type): coroutine" style="text;strokeColor=none;fillColor=none;align=left;verticalAlign=top;spacingLeft=4;spacingRight=4;overflow=hidden;rotatable=0;points=[[0,0.5],[1,0.5]];portConstraint=eastwest;" vertex="1" parent="V3jVEzcbfm84GRrFoneU-9">
          <mxGeometry y="60" width="160" height="26" as="geometry" />
        </mxCell>
        <mxCell id="g-DItmgqgjEYdO-mJaCF-36" value="Cooking" style="swimlane;fontStyle=1;align=center;verticalAlign=top;childLayout=stackLayout;horizontal=1;startSize=26;horizontalStack=0;resizeParent=1;resizeParentMax=0;resizeLast=0;collapsible=1;marginBottom=0;" parent="1" vertex="1">
          <mxGeometry x="690" y="320" width="160" height="112" as="geometry" />
        </mxCell>
        <mxCell id="g-DItmgqgjEYdO-mJaCF-37" value="- Recipes : List&lt;Recipe&gt;" style="text;strokeColor=none;fillColor=none;align=left;verticalAlign=top;spacingLeft=4;spacingRight=4;overflow=hidden;rotatable=0;points=[[0,0.5],[1,0.5]];portConstraint=eastwest;" parent="g-DItmgqgjEYdO-mJaCF-36" vertex="1">
          <mxGeometry y="26" width="160" height="26" as="geometry" />
        </mxCell>
        <mxCell id="g-DItmgqgjEYdO-mJaCF-38" value="" style="line;strokeWidth=1;fillColor=none;align=left;verticalAlign=middle;spacingTop=-1;spacingLeft=3;spacingRight=3;rotatable=0;labelPosition=right;points=[];portConstraint=eastwest;" parent="g-DItmgqgjEYdO-mJaCF-36" vertex="1">
          <mxGeometry y="52" width="160" height="8" as="geometry" />
        </mxCell>
        <mxCell id="g-DItmgqgjEYdO-mJaCF-2" value="+ Cook(List&lt;int&gt;) : int" style="text;strokeColor=none;fillColor=none;align=left;verticalAlign=top;spacingLeft=4;spacingRight=4;overflow=hidden;rotatable=0;points=[[0,0.5],[1,0.5]];portConstraint=eastwest;fontStyle=1" parent="g-DItmgqgjEYdO-mJaCF-36" vertex="1">
          <mxGeometry y="60" width="160" height="26" as="geometry" />
        </mxCell>
        <mxCell id="g-DItmgqgjEYdO-mJaCF-4" value="- SetRecipe()" style="text;strokeColor=none;fillColor=none;align=left;verticalAlign=top;spacingLeft=4;spacingRight=4;overflow=hidden;rotatable=0;points=[[0,0.5],[1,0.5]];portConstraint=eastwest;" parent="g-DItmgqgjEYdO-mJaCF-36" vertex="1">
          <mxGeometry y="86" width="160" height="26" as="geometry" />
        </mxCell>
        <mxCell id="g-DItmgqgjEYdO-mJaCF-41" value="Recipe" style="swimlane;fontStyle=1;align=center;verticalAlign=top;childLayout=stackLayout;horizontal=1;startSize=26;horizontalStack=0;resizeParent=1;resizeParentMax=0;resizeLast=0;collapsible=1;marginBottom=0;" parent="1" vertex="1">
          <mxGeometry x="960" y="294" width="160" height="164" as="geometry" />
        </mxCell>
        <mxCell id="g-DItmgqgjEYdO-mJaCF-45" value="+ Tail: List&lt;Recipe&gt;" style="text;strokeColor=none;fillColor=none;align=left;verticalAlign=top;spacingLeft=4;spacingRight=4;overflow=hidden;rotatable=0;points=[[0,0.5],[1,0.5]];portConstraint=eastwest;" parent="g-DItmgqgjEYdO-mJaCF-41" vertex="1">
          <mxGeometry y="26" width="160" height="26" as="geometry" />
        </mxCell>
        <mxCell id="g-DItmgqgjEYdO-mJaCF-42" value="+ _value: int" style="text;strokeColor=none;fillColor=none;align=left;verticalAlign=top;spacingLeft=4;spacingRight=4;overflow=hidden;rotatable=0;points=[[0,0.5],[1,0.5]];portConstraint=eastwest;" parent="g-DItmgqgjEYdO-mJaCF-41" vertex="1">
          <mxGeometry y="52" width="160" height="26" as="geometry" />
        </mxCell>
        <mxCell id="g-DItmgqgjEYdO-mJaCF-52" value="+ _result: int" style="text;strokeColor=none;fillColor=none;align=left;verticalAlign=top;spacingLeft=4;spacingRight=4;overflow=hidden;rotatable=0;points=[[0,0.5],[1,0.5]];portConstraint=eastwest;" parent="g-DItmgqgjEYdO-mJaCF-41" vertex="1">
          <mxGeometry y="78" width="160" height="26" as="geometry" />
        </mxCell>
        <mxCell id="g-DItmgqgjEYdO-mJaCF-43" value="" style="line;strokeWidth=1;fillColor=none;align=left;verticalAlign=middle;spacingTop=-1;spacingLeft=3;spacingRight=3;rotatable=0;labelPosition=right;points=[];portConstraint=eastwest;" parent="g-DItmgqgjEYdO-mJaCF-41" vertex="1">
          <mxGeometry y="104" width="160" height="8" as="geometry" />
        </mxCell>
        <mxCell id="g-DItmgqgjEYdO-mJaCF-44" value="+ Add(List&lt;int&gt;, int) " style="text;strokeColor=none;fillColor=none;align=left;verticalAlign=top;spacingLeft=4;spacingRight=4;overflow=hidden;rotatable=0;points=[[0,0.5],[1,0.5]];portConstraint=eastwest;" parent="g-DItmgqgjEYdO-mJaCF-41" vertex="1">
          <mxGeometry y="112" width="160" height="26" as="geometry" />
        </mxCell>
        <mxCell id="g-DItmgqgjEYdO-mJaCF-54" value="+ Get(List&lt;int&gt;) : int" style="text;strokeColor=none;fillColor=none;align=left;verticalAlign=top;spacingLeft=4;spacingRight=4;overflow=hidden;rotatable=0;points=[[0,0.5],[1,0.5]];portConstraint=eastwest;" parent="g-DItmgqgjEYdO-mJaCF-41" vertex="1">
          <mxGeometry y="138" width="160" height="26" as="geometry" />
        </mxCell>
        <mxCell id="g-DItmgqgjEYdO-mJaCF-55" value="1 : 0..*" style="edgeStyle=orthogonalEdgeStyle;rounded=0;orthogonalLoop=1;jettySize=auto;html=1;entryX=0.5;entryY=0;entryDx=0;entryDy=0;endArrow=none;endFill=0;" parent="1" source="g-DItmgqgjEYdO-mJaCF-37" target="g-DItmgqgjEYdO-mJaCF-41" edge="1">
          <mxGeometry relative="1" as="geometry">
            <mxPoint x="961" y="310" as="targetPoint" />
          </mxGeometry>
        </mxCell>
        <mxCell id="g-DItmgqgjEYdO-mJaCF-31" value="Tycoon" style="swimlane;fontStyle=0;childLayout=stackLayout;horizontal=1;startSize=26;fillColor=none;horizontalStack=0;resizeParent=1;resizeParentMax=0;resizeLast=0;collapsible=1;marginBottom=0;" parent="1" vertex="1">
          <mxGeometry x="510" y="324" width="140" height="104" as="geometry" />
        </mxCell>
        <mxCell id="g-DItmgqgjEYdO-mJaCF-32" value="+ field: type" style="text;strokeColor=none;fillColor=none;align=left;verticalAlign=top;spacingLeft=4;spacingRight=4;overflow=hidden;rotatable=0;points=[[0,0.5],[1,0.5]];portConstraint=eastwest;" parent="g-DItmgqgjEYdO-mJaCF-31" vertex="1">
          <mxGeometry y="26" width="140" height="26" as="geometry" />
        </mxCell>
        <mxCell id="g-DItmgqgjEYdO-mJaCF-33" value="+ field: type" style="text;strokeColor=none;fillColor=none;align=left;verticalAlign=top;spacingLeft=4;spacingRight=4;overflow=hidden;rotatable=0;points=[[0,0.5],[1,0.5]];portConstraint=eastwest;" parent="g-DItmgqgjEYdO-mJaCF-31" vertex="1">
          <mxGeometry y="52" width="140" height="26" as="geometry" />
        </mxCell>
        <mxCell id="g-DItmgqgjEYdO-mJaCF-34" value="List&lt;Int&gt; Pot" style="text;strokeColor=none;fillColor=none;align=left;verticalAlign=top;spacingLeft=4;spacingRight=4;overflow=hidden;rotatable=0;points=[[0,0.5],[1,0.5]];portConstraint=eastwest;" parent="g-DItmgqgjEYdO-mJaCF-31" vertex="1">
          <mxGeometry y="78" width="140" height="26" as="geometry" />
        </mxCell>
        <mxCell id="g-DItmgqgjEYdO-mJaCF-27" value="Singleton Data" style="swimlane;fontStyle=0;childLayout=stackLayout;horizontal=1;startSize=26;fillColor=none;horizontalStack=0;resizeParent=1;resizeParentMax=0;resizeLast=0;collapsible=1;marginBottom=0;" parent="1" vertex="1">
          <mxGeometry x="-110" y="311" width="140" height="104" as="geometry" />
        </mxCell>
        <mxCell id="g-DItmgqgjEYdO-mJaCF-28" value="Battle Data" style="text;strokeColor=none;fillColor=none;align=left;verticalAlign=top;spacingLeft=4;spacingRight=4;overflow=hidden;rotatable=0;points=[[0,0.5],[1,0.5]];portConstraint=eastwest;" parent="g-DItmgqgjEYdO-mJaCF-27" vertex="1">
          <mxGeometry y="26" width="140" height="26" as="geometry" />
        </mxCell>
        <mxCell id="g-DItmgqgjEYdO-mJaCF-29" value="+ field: type" style="text;strokeColor=none;fillColor=none;align=left;verticalAlign=top;spacingLeft=4;spacingRight=4;overflow=hidden;rotatable=0;points=[[0,0.5],[1,0.5]];portConstraint=eastwest;" parent="g-DItmgqgjEYdO-mJaCF-27" vertex="1">
          <mxGeometry y="52" width="140" height="26" as="geometry" />
        </mxCell>
        <mxCell id="g-DItmgqgjEYdO-mJaCF-30" value="+ field: type" style="text;strokeColor=none;fillColor=none;align=left;verticalAlign=top;spacingLeft=4;spacingRight=4;overflow=hidden;rotatable=0;points=[[0,0.5],[1,0.5]];portConstraint=eastwest;" parent="g-DItmgqgjEYdO-mJaCF-27" vertex="1">
          <mxGeometry y="78" width="140" height="26" as="geometry" />
        </mxCell>
        <mxCell id="V3jVEzcbfm84GRrFoneU-32" value="GameManager" style="swimlane;fontStyle=1;align=center;verticalAlign=top;childLayout=stackLayout;horizontal=1;startSize=26;horizontalStack=0;resizeParent=1;resizeParentMax=0;resizeLast=0;collapsible=1;marginBottom=0;strokeColor=#000000;strokeWidth=1;" vertex="1" parent="1">
          <mxGeometry x="130" y="250" width="160" height="86" as="geometry" />
        </mxCell>
        <mxCell id="V3jVEzcbfm84GRrFoneU-33" value="+ field: type" style="text;strokeColor=none;fillColor=none;align=left;verticalAlign=top;spacingLeft=4;spacingRight=4;overflow=hidden;rotatable=0;points=[[0,0.5],[1,0.5]];portConstraint=eastwest;" vertex="1" parent="V3jVEzcbfm84GRrFoneU-32">
          <mxGeometry y="26" width="160" height="26" as="geometry" />
        </mxCell>
        <mxCell id="V3jVEzcbfm84GRrFoneU-34" value="" style="line;strokeWidth=1;fillColor=none;align=left;verticalAlign=middle;spacingTop=-1;spacingLeft=3;spacingRight=3;rotatable=0;labelPosition=right;points=[];portConstraint=eastwest;" vertex="1" parent="V3jVEzcbfm84GRrFoneU-32">
          <mxGeometry y="52" width="160" height="8" as="geometry" />
        </mxCell>
        <mxCell id="V3jVEzcbfm84GRrFoneU-35" value="+ method(type): type" style="text;strokeColor=none;fillColor=none;align=left;verticalAlign=top;spacingLeft=4;spacingRight=4;overflow=hidden;rotatable=0;points=[[0,0.5],[1,0.5]];portConstraint=eastwest;" vertex="1" parent="V3jVEzcbfm84GRrFoneU-32">
          <mxGeometry y="60" width="160" height="26" as="geometry" />
        </mxCell>
        <mxCell id="V3jVEzcbfm84GRrFoneU-59" value="MazeData" style="swimlane;fontStyle=1;align=center;verticalAlign=top;childLayout=stackLayout;horizontal=1;startSize=26;horizontalStack=0;resizeParent=1;resizeParentMax=0;resizeLast=0;collapsible=1;marginBottom=0;strokeColor=#000000;strokeWidth=1;" vertex="1" parent="1">
          <mxGeometry x="-50" y="153" width="160" height="86" as="geometry" />
        </mxCell>
        <mxCell id="V3jVEzcbfm84GRrFoneU-60" value="+ field: type" style="text;strokeColor=none;fillColor=none;align=left;verticalAlign=top;spacingLeft=4;spacingRight=4;overflow=hidden;rotatable=0;points=[[0,0.5],[1,0.5]];portConstraint=eastwest;" vertex="1" parent="V3jVEzcbfm84GRrFoneU-59">
          <mxGeometry y="26" width="160" height="26" as="geometry" />
        </mxCell>
        <mxCell id="V3jVEzcbfm84GRrFoneU-61" value="" style="line;strokeWidth=1;fillColor=none;align=left;verticalAlign=middle;spacingTop=-1;spacingLeft=3;spacingRight=3;rotatable=0;labelPosition=right;points=[];portConstraint=eastwest;" vertex="1" parent="V3jVEzcbfm84GRrFoneU-59">
          <mxGeometry y="52" width="160" height="8" as="geometry" />
        </mxCell>
        <mxCell id="V3jVEzcbfm84GRrFoneU-62" value="+ method(type): type" style="text;strokeColor=none;fillColor=none;align=left;verticalAlign=top;spacingLeft=4;spacingRight=4;overflow=hidden;rotatable=0;points=[[0,0.5],[1,0.5]];portConstraint=eastwest;" vertex="1" parent="V3jVEzcbfm84GRrFoneU-59">
          <mxGeometry y="60" width="160" height="26" as="geometry" />
        </mxCell>
      </root>
    </mxGraphModel>
  </diagram>
</mxfile>
